<?xml version="1.0" standalone="no"?>
<!DOCTYPE svg PUBLIC "-//W3C//DTD SVG 20010904//EN"
 "http://www.w3.org/TR/2001/REC-SVG-20010904/DTD/svg10.dtd">
<svg version="1.0" xmlns="http://www.w3.org/2000/svg"
 width="144.000000pt" height="144.000000pt" viewBox="0 0 144.000000 144.000000"
 preserveAspectRatio="xMidYMid meet">
<metadata>
Created by potrace 1.10, written by Peter Selinger 2001-2011
</metadata>
<g transform="translate(0.000000,144.000000) scale(0.100000,-0.100000)"
fill="#000000" stroke="none">
<path d="M620 1024 c-139 -50 -219 -161 -220 -305 0 -65 4 -85 31 -137 57
-114 152 -173 291 -180 79 -4 93 -2 141 21 59 29 95 63 126 120 22 39 28 87
11 87 -5 0 -10 -8 -10 -18 0 -28 -38 -92 -72 -121 -53 -44 -98 -60 -170 -61
-166 -1 -297 106 -313 256 -10 90 12 159 74 226 41 45 61 58 119 77 99 33 180
27 246 -17 55 -38 74 -36 82 8 4 16 12 30 18 30 8 0 11 -40 11 -130 0 -81 -4
-130 -10 -130 -6 0 -21 30 -34 68 -14 37 -34 80 -45 95 -24 33 -84 67 -119 67
-111 0 -164 -265 -86 -428 16 -32 33 -49 65 -64 39 -20 47 -20 84 -8 52 17
105 76 120 132 7 24 17 46 24 50 8 6 8 8 -1 8 -14 0 -47 -45 -57 -77 -12 -39
-73 -83 -114 -83 -75 0 -122 85 -122 219 0 180 75 269 158 187 13 -13 40 -57
60 -97 24 -48 44 -75 56 -78 36 -6 46 26 46 140 0 90 -3 110 -19 130 l-19 24
-26 -24 c-25 -23 -28 -24 -68 -10 -24 7 -53 18 -65 25 -34 17 -142 16 -193 -2z"/>
<path d="M0 105 c0 -13 87 -15 720 -15 633 0 720 2 720 15 0 13 -87 15 -720
15 -633 0 -720 -2 -720 -15z"/>
</g>
</svg>